# xmcd
#
# Track frame offsets:
# 150
# 14899
# 30512
# 47683
# 64086
# 75428
# 87088
# 99371
# 112044
# 128747
# 146084
# 161770
#
# Disc length: 2335 seconds
#
#
# Revision: 0
# Processed by: cddbd v1.5.2PL0 Copyright (c) Steve Scherf et al.
# Submitted via: FreeRIP 2.945 
#
DISCID=99091d0c
DTITLE=Os Atuais - Fim de Semana
DYEAR=1900
DGENRE=
TTITLE0=Amada Minha
TTITLE1=Menina Morena
TTITLE2=Fim de Semana
TTITLE3=Meu Xodó
TTITLE4=Baile do Niquinho
TTITLE5=Volte Outra Vez
TTITLE6=Palomita Branca
TTITLE7=Playboy
TTITLE8=Por Ela
TTITLE9=Vem Meu Amor
TTITLE10=De Tanto Esperar
TTITLE11=Expresso do Amor
EXTD=
EXTT0=
EXTT1=
EXTT2=
EXTT3=
EXTT4=
EXTT5=
EXTT6=
EXTT7=
EXTT8=
EXTT9=
EXTT10=
EXTT11=
PLAYORDER=
